<svg width="153" height="79" viewBox="0 0 153 79" fill="none" xmlns="http://www.w3.org/2000/svg">
<g clip-path="url(#clip0_1005_649)">
<path d="M13.3467 29.3954C14.2248 29.3954 15.0701 29.0327 15.8825 28.3072C16.6948 27.5818 17.2396 26.4591 17.5167 24.9391C17.78 23.5193 17.6406 22.4372 17.0984 21.6928C16.8644 21.3436 16.5463 21.0587 16.1731 20.864C15.8 20.6694 15.3838 20.5713 14.9627 20.5787H12.3256L10.7044 29.3876L13.3467 29.3954ZM15.7811 14.1871C16.2431 14.1987 16.7017 14.107 17.1234 13.9187C17.5452 13.7304 17.9192 13.4503 18.2182 13.099C18.8597 12.3764 19.287 11.4901 19.4523 10.5392C19.6537 9.65525 19.556 8.72965 19.1743 7.90692C18.8019 7.16075 18.1247 6.78854 17.1426 6.79026H14.8562L13.4948 14.1897L15.7811 14.1871ZM20.9307 -0.00292969C24.3187 -0.00292969 26.6674 0.81664 27.9769 2.45578C29.2863 4.09492 29.6899 6.28246 29.1876 9.01839C29.0122 9.96652 28.7307 10.8921 28.3484 11.7776C27.9746 12.6553 27.4787 13.476 26.8753 14.2156C26.2892 14.9428 25.587 15.5687 24.7967 16.0681C23.9417 16.5923 22.9963 16.9534 22.0089 17.1329L21.9907 17.234C23.0156 17.2885 24.0078 17.612 24.8669 18.1718C25.5943 18.6705 26.187 19.3406 26.5921 20.1227C26.9961 20.9208 27.2422 21.789 27.3169 22.6799C27.4019 23.6196 27.3555 24.5666 27.1792 25.4936C26.9156 26.9874 26.4452 28.4374 25.7814 29.8021C25.1552 31.0845 24.2923 32.2376 23.2378 33.2013C22.138 34.1826 20.8503 34.9317 19.4523 35.4035C17.7831 35.9541 16.032 36.217 14.2742 36.1808H-0.015625L6.64864 -0.000338784L20.9307 -0.00292969Z" fill="white"/>
<path d="M46.3466 0.217773L39.6953 36.4093H60.7949L62.2083 28.7041H50.5686L55.8013 0.217773H46.3466Z" fill="white"/>
<path d="M86.8915 26.5457C86.572 28.3049 86.6083 29.4786 87.0085 30.0693C87.4086 30.66 88.0477 30.9579 88.9285 30.9579C89.3436 30.9665 89.7562 30.8923 90.1421 30.7397C90.528 30.5871 90.8795 30.3592 91.1759 30.0693C91.7908 29.4786 92.2602 28.304 92.5841 26.5457L97.3751 0.432617H106.83L102.48 24.157C102.013 26.6908 101.354 28.8024 100.503 30.4916C99.756 32.0434 98.6944 33.4239 97.3855 34.5463C96.1634 35.5605 94.7173 36.2709 93.1661 36.6189C91.3979 37.0085 89.5908 37.1954 87.7801 37.176C86.0438 37.2015 84.3108 37.0144 82.6202 36.6189C81.2653 36.3219 80.0437 35.5946 79.1386 34.5463C78.2882 33.5324 77.7486 32.1808 77.52 30.4916C77.2914 28.8024 77.4074 26.6908 77.8681 24.157L82.2278 0.432617H91.6851L86.8915 26.5457Z" fill="white"/>
<path d="M123.031 0L116.383 36.1915H138.34L139.756 28.4863H127.251L128.573 21.289H139.86L141.216 13.8895H129.932L131.07 7.70517H143.118L144.534 0H123.031Z" fill="white"/>
<path d="M152.967 60.9086C153.018 60.7998 153.011 60.7169 152.943 60.6702C152.712 60.5018 152.444 60.7946 152.075 61.1884C151.813 61.5258 151.487 61.8076 151.114 62.0175C150.665 62.1962 149.766 61.7817 149.295 61.4449C148.03 60.5303 147.736 55.916 147.721 55.5093C148.531 53.5873 149.232 51.6212 149.82 49.6203C151.075 45.3247 151.314 42.2208 150.537 40.4098C150.496 40.2614 150.411 40.1288 150.293 40.0287C150.176 39.9285 150.031 39.8655 149.877 39.8476C149.051 39.7854 147.955 41.2519 147.604 41.8218C145.84 44.6718 145.658 48.1824 145.629 51.2396C145.629 52.294 145.705 53.3511 145.788 54.3719C145.845 55.0921 145.907 55.8357 145.931 56.5715C145.98 57.9369 144.112 60.8619 143.475 60.9889C142.956 61.0899 142.68 60.4707 142.41 59.7479V59.7272C141.943 58.4887 141.54 55.986 141.488 55.6621C141.657 55.2787 143.062 52.0349 143.431 50.3535C143.76 48.8648 143.983 47.3549 144.099 45.8351C144.117 45.5993 144.138 45.3583 144.161 45.107C144.289 43.6588 144.421 42.0136 144.063 40.6896C143.938 40.2388 143.779 40.0005 143.543 39.9124C143.257 39.8088 142.922 40.0005 142.605 40.2207C142.108 40.5755 141.69 41.03 141.379 41.555C139.791 44.1458 139.56 47.9 139.399 50.9183L139.383 51.1774C139.339 52.4209 139.385 53.6661 139.521 54.903C139.578 55.5611 139.633 56.2399 139.664 56.9213C139.719 58.2452 137.988 60.6702 137.552 60.7842C137.333 60.4915 137.508 57.7478 137.866 55.9601C138.017 55.1828 137.988 54.7527 137.762 54.4937C137.536 54.2346 137.105 54.2087 136.684 54.2346C136.424 54.2527 136.219 54.561 136.076 55.0118C135.626 55.0134 135.181 54.9115 134.777 54.7139C134.638 54.6352 134.507 54.5442 134.385 54.4418C134.068 54.1828 133.738 53.9237 133.241 54.3071C132.826 54.6232 132.116 55.8798 131.646 56.7114C131.566 56.8539 131.482 57.0016 131.412 57.1208C131.412 56.9005 131.412 56.6026 131.412 56.2865C131.428 54.7061 131.412 53.3718 131.184 53.0013C131.146 52.9449 131.095 52.8986 131.035 52.8665C130.975 52.8344 130.909 52.8176 130.841 52.8174C130.473 52.8278 130.124 52.9779 129.864 53.2371C129.56 53.5895 129.417 54.232 129.29 54.7916C129.235 55.0507 129.18 55.2761 129.123 55.4626C128.894 56.1046 128.625 56.7319 128.318 57.341L128.014 57.9887C127.952 57.5483 127.936 56.9524 127.915 56.3565C127.876 55.0611 127.837 54.5092 127.603 54.4004C127.564 54.3826 127.52 54.3768 127.478 54.3837C127.435 54.3906 127.396 54.41 127.364 54.4393C127.105 54.6543 126.45 55.1206 126.26 55.258C126.06 55.1828 125.436 54.9522 125.099 54.8434C123.337 54.2968 121.851 54.8149 120.682 56.3979C119.986 57.3306 119.261 59.1209 119.812 60.1857C120.071 60.7039 120.614 60.963 121.404 60.963C122.428 60.9423 124.452 58.7219 126.296 56.5586C126.324 56.5215 126.353 56.486 126.385 56.4523C126.299 58.1079 126.72 61.8931 126.769 62.331C126.408 63.1289 121.534 74.0053 122.399 76.8837C122.815 78.2672 123.787 79.0082 125.164 79.0082C125.337 79.0077 125.511 78.9973 125.683 78.9771C127.058 78.8061 128.572 77.5392 129.201 76.0287C129.83 74.5183 129.861 72.5933 129.874 71.0621C129.884 69.1601 129.728 67.2608 129.409 65.3856C129.149 63.7741 128.476 59.722 128.406 59.2997C128.505 59.0691 129.11 57.6882 129.591 56.4782C129.847 57.8089 129.997 59.1578 130.038 60.5122L130.061 60.9397C130.061 60.9785 130.061 61.02 130.061 61.0614C130.049 61.1669 130.058 61.2738 130.088 61.3758C130.118 61.4777 130.168 61.5726 130.235 61.6547C130.289 61.6955 130.351 61.7244 130.417 61.7396C130.483 61.7548 130.551 61.7559 130.617 61.7428C130.673 61.738 130.728 61.738 130.783 61.7428C130.929 61.7428 131.134 61.7428 131.181 61.4993C131.308 60.893 131.49 60.0173 131.646 59.4266C131.958 58.2374 132.358 56.8746 133.182 55.7632L133.244 55.6803C133.423 55.4212 133.556 55.2502 133.79 55.2217C134.081 55.2507 134.361 55.3503 134.605 55.5119C135.146 55.8513 135.504 55.9653 135.881 55.8202C135.832 56.1078 135.793 56.4109 135.767 56.6985C135.551 58.937 135.785 62.1729 136.788 62.4294C138.607 62.8906 139.487 60.7765 139.968 59.6391C140.015 59.5225 140.061 59.4163 140.103 59.323C140.147 59.4422 140.191 59.5639 140.236 59.6909C140.708 61.0044 141.293 62.6419 142.971 62.432C144.237 62.2766 144.902 61.2428 145.546 60.2453C145.755 59.9011 145.986 59.5705 146.237 59.2556C146.315 59.4499 146.393 59.6468 146.471 59.8489C146.991 61.1444 147.555 62.6367 149.111 63.0123C149.291 63.0564 149.476 63.0782 149.662 63.0771C151.343 63.0512 152.777 61.3231 152.967 60.9086ZM149.833 41.1871C149.892 41.2393 149.935 41.3078 149.955 41.384C150.519 42.9722 148.848 51.0167 147.731 53.4133C147.835 49.0866 149.339 41.6871 149.833 41.1871ZM121.282 59.152C121.233 58.8929 121.835 57.4498 122.789 56.6389C123.464 56.0663 124.714 56.0689 125.265 56.1C123.568 57.6545 121.708 59.152 121.282 59.152ZM127.902 72.2979C127.824 73.3084 127.318 76.407 126.05 77.3941C125.915 77.5058 125.758 77.5868 125.589 77.6315C125.419 77.6763 125.242 77.6837 125.07 77.6532C124.776 77.6121 124.498 77.4918 124.267 77.3051C124.035 77.1184 123.86 76.8724 123.758 76.5935C122.54 73.6374 126.203 65.8441 127.058 64.2249L127.182 64.8959C127.629 67.3313 128.089 69.8444 127.902 72.2979ZM141.288 54.2475C141.288 53.9884 141.303 53.7294 141.311 53.4703C141.368 51.553 141.428 49.5685 141.571 47.6176C141.649 46.413 141.823 45.2166 142.091 44.0396C142.454 42.5291 143.029 41.099 143.268 41.099C143.3 41.0999 143.331 41.1078 143.36 41.1222C143.389 41.1365 143.414 41.1569 143.434 41.1819C144.065 41.9177 143.411 46.2237 143.174 47.843L143.156 47.9492C142.8 50.2214 142.335 52.5453 141.288 54.2475V54.2475Z" fill="white"/>
<path d="M77.6437 62.7781L77.7294 62.7134L77.6748 62.6201C77.6203 62.5216 77.5787 62.4517 77.5034 62.431C77.4833 62.4256 77.4623 62.4244 77.4417 62.4276C77.4211 62.4307 77.4014 62.438 77.3838 62.4491L77.3085 62.4931C77.2357 62.5424 77.1604 62.589 77.0877 62.6434C77.0149 62.6978 76.0354 63.0631 75.2508 62.6434C74.5441 62.2548 74.2115 61.348 74.2479 59.9567C74.2479 59.8401 74.2791 59.5966 74.3128 59.3401C74.3759 58.9321 74.4063 58.5197 74.4038 58.1068C74.3878 57.9917 74.347 57.8814 74.2842 57.7834C74.2214 57.6855 74.1381 57.6023 74.04 57.5394C73.958 57.488 73.8653 57.4558 73.7689 57.4455C73.6726 57.4352 73.5751 57.4469 73.484 57.4799C73.3385 57.5291 73.0683 57.9203 72.2239 59.2364C71.7043 60.0137 71.0262 61.1044 70.8391 61.2262C70.5143 61.1796 70.4494 59.8531 70.3922 58.7831C70.3143 57.2415 70.2259 55.4927 69.5348 54.9227C69.4414 54.8449 69.3321 54.7882 69.2147 54.7565C69.0972 54.7247 68.9742 54.7187 68.8541 54.7387C68.2955 54.8165 67.9941 55.0496 67.0692 56.1197C66.7678 56.4668 65.2843 58.5447 64.788 59.2909C64.6191 58.6276 64.232 56.8425 64.3671 56.1818C66.6665 51.3914 66.6353 41.5773 66.0091 39.9165C65.9921 39.8484 65.9618 39.7842 65.9199 39.7277C65.878 39.6713 65.8253 39.6236 65.7649 39.5875C65.6351 39.5312 65.493 39.5088 65.3521 39.5224C65.2112 39.536 65.0761 39.5852 64.9595 39.6652C63.4006 40.6394 62.2392 46.5957 62.1431 48.3938C61.9924 51.1323 61.8833 53.8112 62.221 56.4254C62.221 56.7052 62.2756 57.0886 62.3146 57.4617C62.3353 57.6638 62.3561 57.8581 62.3691 58.0162C62.1613 58.3556 60.7167 60.0085 60.1191 60.6407L59.9632 60.3816C59.8671 60.2287 59.771 60.0707 59.719 59.9722C59.4176 59.3997 59.0617 58.8504 58.7187 58.3193C58.5888 58.1224 58.4589 57.9203 58.3316 57.7234C58.2407 57.5757 58.1523 57.4306 58.0588 57.2881C57.9029 57.0446 57.7496 56.8036 57.6015 56.5575C57.3485 56.1268 57.1834 55.6505 57.1157 55.1559C57.0501 54.6883 57.1233 54.2119 57.3261 53.7853C57.5045 53.4691 57.7266 53.1796 57.986 52.9252L58.09 52.8552C58.3914 52.6402 58.6746 52.4381 59.0305 52.5961L59.1058 52.6324C59.2435 52.7023 59.3657 52.7697 59.4566 52.7179C59.5017 52.6967 59.5387 52.6615 59.5621 52.6176C59.5855 52.5737 59.5941 52.5235 59.5865 52.4743C59.5813 52.3747 59.5475 52.2787 59.4889 52.1978C59.4304 52.117 59.3497 52.0546 59.2565 52.0184C58.2485 51.6168 56.8896 51.8785 55.7958 52.6842C54.9254 53.3241 54.4396 54.161 54.4967 54.9201C54.5773 55.9383 55.3879 56.8606 56.1024 57.6716C56.305 57.9048 56.4999 58.125 56.6636 58.3322C56.7571 58.4488 56.861 58.5913 56.9754 58.7209C57.5781 59.467 58.3991 60.4826 58.8538 61.5009L58.0744 62.2004L57.8146 62.4361C57.6446 62.5872 57.4873 62.7518 57.3443 62.9284C57.0505 63.2063 56.8508 63.5685 56.7727 63.9647C56.7475 64.1244 56.7577 64.2877 56.8026 64.443C56.8475 64.5983 56.926 64.7419 57.0325 64.8638C57.2079 65.0416 57.4181 65.1815 57.6501 65.2747C57.8821 65.3679 58.1309 65.4123 58.381 65.4052C58.8233 65.3992 59.2584 65.2927 59.6532 65.0938C60.048 64.895 60.3922 64.6089 60.6595 64.2575C61.3481 63.4077 60.7479 61.9672 60.5244 61.4231C60.5037 61.3713 60.4829 61.3221 60.4699 61.2832C60.8154 60.9309 61.756 59.9256 62.325 59.3142L62.6186 59.0033C62.8394 59.879 63.715 62.5087 64.1489 63.0579L64.1722 63.0864L64.2086 63.0994C64.4425 63.1694 65.0192 63.3015 65.3154 62.9906L65.344 62.9621L65.3778 62.7341C65.3986 62.589 65.4168 62.4387 65.4453 62.2936C65.4739 62.1486 65.5025 61.9827 65.5363 61.7755C65.6177 61.2133 65.7349 60.6569 65.887 60.1096C66.1832 59.2079 67.4693 56.9772 67.924 56.371C68.1474 56.0704 68.6099 55.6533 68.7216 55.6714C69.0048 55.7518 68.9814 57.3762 68.9814 58.5628C68.9632 60.6796 68.9399 62.8714 69.8284 63.0424C70.9586 63.2652 71.868 61.6511 72.6032 60.3557C72.7773 60.0448 72.9384 59.7598 73.0865 59.5318C72.9436 60.5681 72.6266 62.8999 73.6061 63.6461C74.9935 64.7005 76.4823 63.7264 76.5472 63.6823C76.7395 63.5502 77.1994 63.1642 77.4748 62.9284L77.6437 62.7781ZM59.0435 63.5321C58.9538 63.6677 58.8502 63.7936 58.7343 63.9077C58.5507 64.0271 58.335 64.0876 58.1159 64.0813C58.0233 64.0808 57.9328 64.0529 57.8561 64.001C57.8135 63.9215 57.8033 63.8287 57.8276 63.7419C57.9471 63.2238 58.8071 62.4957 59.1734 62.2133C59.2209 62.6571 59.1767 63.106 59.0435 63.5321V63.5321ZM64.0449 48.7643C64.1644 44.9143 64.5074 42.0643 64.9881 40.9373C65.0499 40.7403 65.1693 40.5662 65.331 40.4373C65.5597 40.9555 65.9 44.8909 65.1543 49.6918C64.9413 51.0597 64.3983 53.6117 64.1151 54.6766C63.9869 52.705 63.9635 50.728 64.0449 48.7539V48.7643Z" fill="white"/>
<path d="M74.5176 54.0575C74.4577 54.3009 74.4577 54.5551 74.5176 54.7985C74.5324 54.8826 74.5686 54.9616 74.6228 55.0278C74.6769 55.094 74.7471 55.1453 74.8268 55.1768C74.8653 55.1893 74.9057 55.1954 74.9463 55.1949C75.0762 55.1905 75.2 55.1389 75.2944 55.0498C75.33 55.016 75.363 54.9797 75.3932 54.941C75.4184 54.9078 75.4472 54.8774 75.4789 54.8503C75.5837 54.7663 75.666 54.6578 75.7186 54.5344C75.7712 54.411 75.7924 54.2765 75.7803 54.143V54.0938C75.7803 54.0523 75.7803 54.0083 75.7803 53.9668C75.7743 53.8787 75.7477 53.7931 75.7026 53.7171C75.6575 53.641 75.5951 53.5766 75.5205 53.529C75.4446 53.4882 75.3598 53.4668 75.2736 53.4668C75.1875 53.4668 75.1026 53.4882 75.0268 53.529C74.9061 53.5707 74.797 53.6403 74.7084 53.7322C74.6199 53.824 74.5545 53.9355 74.5176 54.0575V54.0575Z" fill="white"/>
<path d="M136.804 51.8091C136.925 51.8984 137.072 51.9457 137.222 51.9439C137.298 51.9436 137.373 51.9331 137.446 51.9128L137.493 51.8895C137.514 51.8745 137.535 51.8607 137.558 51.848C137.694 51.7752 137.808 51.668 137.89 51.5371C138.025 51.2564 138.059 50.9381 137.986 50.6355C137.965 50.5058 137.903 50.3862 137.81 50.2933C137.717 50.2003 137.597 50.1388 137.467 50.1173C137.35 50.1152 137.235 50.1372 137.128 50.1818C137.02 50.2264 136.923 50.2926 136.843 50.3764C136.738 50.4828 136.654 50.6091 136.598 50.7478C136.542 50.8866 136.514 51.0351 136.516 51.1848C136.514 51.3037 136.539 51.4215 136.589 51.5295C136.639 51.6375 136.712 51.7331 136.804 51.8091V51.8091Z" fill="white"/>
<path d="M103.688 62.849C103.351 61.6905 103.096 60.5096 102.927 59.3151C102.909 59.1752 102.88 59.0431 102.859 58.9187C102.817 58.7493 102.797 58.5751 102.8 58.4005V58.4005C103.475 58.4005 105.715 58.6207 106.697 58.7296C106.614 59.1804 106.58 59.5068 106.58 59.5353C106.58 59.6182 106.434 61.5847 107.203 62.3334C107.373 62.5055 107.575 62.6417 107.798 62.7339C108.021 62.826 108.261 62.8722 108.503 62.8697H108.549C110.178 62.8283 112.039 60.8385 113.041 59.7607C113.223 59.5569 113.416 59.3632 113.618 59.1804C113.785 59.0362 113.92 58.86 114.016 58.6622L114.052 58.5871L113.998 58.5275C113.738 58.2503 113.101 58.7011 111.776 59.6571C110.547 60.5483 108.869 61.766 108.227 61.5069C108.152 61.4707 108.089 61.4149 108.043 61.3456C107.997 61.2763 107.971 61.196 107.967 61.1131C107.927 60.8122 107.927 60.5073 107.967 60.2063C108.28 60.0242 108.577 59.8172 108.856 59.5871C109.635 58.8902 111.553 56.5973 110.919 55.3563C110.846 55.1982 110.736 55.0605 110.597 54.9552C110.458 54.8499 110.296 54.7803 110.124 54.7526C109.435 54.6412 108.565 55.1257 108.027 55.6594C107.424 56.2449 107.063 57.2139 106.853 58.0248C106.512 57.9445 105.977 57.8513 105.156 57.7191C104.649 57.6362 104.166 57.5611 103.818 57.486C104.322 56.9678 106.403 55.1542 107.507 54.2811C107.584 54.2262 107.637 54.1434 107.653 54.0505V53.7577C107.655 53.712 107.646 53.6664 107.626 53.6252C107.606 53.584 107.576 53.5485 107.539 53.522C107.501 53.496 107.457 53.4804 107.411 53.4768C107.366 53.4731 107.32 53.4816 107.279 53.5012V53.5012C106.855 53.7318 103.87 56.0247 102.774 57.0092C102.862 56.4082 103.293 55.3615 103.509 54.8718C103.574 54.7163 103.623 54.5972 103.644 54.5428C104.052 53.3775 104.392 52.1898 104.662 50.9855C104.826 50.2601 106.25 43.8555 105.845 41.4175C105.684 40.4563 105.351 39.9356 104.852 39.863C103.828 39.7283 102.457 41.6922 101.994 42.713C99.8922 47.2962 100.381 55.6309 100.744 58.4575C100.75 58.517 100.75 58.5768 100.744 58.6363C100.231 59.5373 99.5465 60.3294 98.7283 60.968C98.6631 60.9915 98.5962 61.0097 98.5282 61.0225C98.4466 60.9317 98.3997 60.8152 98.3957 60.6934C98.3619 60.4499 98.4347 56.6206 98.4736 55.8226C98.497 55.2811 98.6815 53.7137 98.6893 53.6645C98.7006 53.616 98.7006 53.5655 98.6893 53.517C98.6781 53.4686 98.6558 53.4233 98.6243 53.3846C98.5713 53.3369 98.5085 53.3013 98.4403 53.2803C98.3721 53.2593 98.3002 53.2533 98.2294 53.2629H98.0657C97.8101 53.2249 97.5492 53.2742 97.3252 53.4028C97.1307 53.5805 96.9727 53.7944 96.8602 54.0324C93.8307 53.3354 92.2199 56.6517 91.9523 57.5896C91.5729 57.9471 90.6532 58.8125 90.5649 58.885L90.0764 59.2762C89.7438 59.5353 89.4009 59.8125 89.0761 60.0975C88.6838 60.4447 88.2967 60.81 87.9277 61.165L87.4341 61.6339C87.4159 61.6494 87.4003 61.6676 87.3821 61.6805C86.9119 60.968 85.2335 57.9549 86.3195 56.802C86.8183 56.2579 87.1951 55.8848 87.8446 55.6983C88.0061 55.637 88.1813 55.6211 88.3512 55.6522C88.5212 55.6832 88.6793 55.7601 88.8085 55.8744C89.0683 56.0791 89.2528 56.1594 89.4113 56.1335C89.4609 56.1223 89.5074 56.1002 89.5474 56.0688C89.5874 56.0375 89.6199 55.9976 89.6425 55.9522C89.6572 55.9279 89.6649 55.9002 89.6649 55.8719C89.6649 55.8436 89.6572 55.8158 89.6425 55.7915C89.5022 55.5325 88.6033 54.8925 87.6991 54.8303H87.6445C85.9557 54.8303 84.1838 55.7268 83.9863 57.7476C83.8694 58.9886 84.5242 60.1312 85.1035 61.139L85.2386 61.3722C85.3608 61.5924 85.5218 61.8463 85.6933 62.1132C85.8648 62.3801 86.0701 62.7065 86.2571 63.0304C86.2147 63.1092 86.166 63.1846 86.1116 63.2558C85.6541 63.8625 85.2866 64.5317 85.0204 65.2429C84.8385 65.6948 84.7502 66.1786 84.7606 66.6653C84.7762 67.199 85.0542 67.3752 85.4673 67.4737C85.6265 67.5112 85.7895 67.5303 85.9531 67.5307C86.3893 67.5212 86.8166 67.4056 87.1977 67.1938C88.094 66.7042 89.0657 65.6082 88.8553 64.1341C88.7712 63.7243 88.5934 63.3395 88.3356 63.0096C88.2707 62.9164 88.2083 62.8257 88.1486 62.7298L88.0576 62.5847C88.0265 62.5303 87.9901 62.4759 87.9485 62.4111C88.333 62.0484 90.3336 60.2271 91.6275 59.1804C91.3963 60.1442 91.5677 60.7608 91.7678 61.1157C91.8508 61.2789 91.9653 61.4241 92.1049 61.5428C92.2445 61.6616 92.4063 61.7515 92.581 61.8075C94.7869 62.3567 96.1379 58.4886 96.6809 56.7605C96.6393 57.4911 96.5952 58.2192 96.5458 58.9524C96.4977 59.7513 96.515 60.5528 96.5978 61.3489C96.6304 61.7511 96.7895 62.1328 97.0524 62.4396C97.1973 62.6204 97.4008 62.7452 97.628 62.7925C97.8551 62.8397 98.0917 62.8066 98.297 62.6987C98.4463 62.6259 98.5852 62.5335 98.7101 62.4241C99.1881 62.0277 100.404 60.595 100.989 59.9058L101.08 59.7944L101.155 60.139C101.459 61.5847 102.09 64.5952 103.207 65.1574C103.322 65.2149 103.449 65.2448 103.578 65.2448C103.706 65.2448 103.833 65.2149 103.948 65.1574C104.327 64.9864 104.501 64.8414 104.548 64.66C104.595 64.4786 104.475 64.2558 104.288 63.989C104.025 63.6453 103.823 63.2599 103.688 62.849V62.849ZM110.171 55.5946H110.189C110.217 55.5946 110.261 55.6128 110.3 55.732C110.519 56.403 110.012 57.1206 109.708 57.5455C109.64 57.6388 109.586 57.7191 109.547 57.7813C109.225 58.2995 108.591 59.0534 108.087 59.2529C108.243 58.1855 109.646 55.6775 110.171 55.5972V55.5946ZM86.969 66.1316C86.8736 66.3092 86.7376 66.4618 86.5719 66.5771C86.4062 66.6923 86.2156 66.7669 86.0155 66.7949C85.9449 66.8136 85.8712 66.8172 85.7991 66.8056C85.7271 66.794 85.6583 66.7674 85.5972 66.7275C85.5648 66.6513 85.5488 66.5692 85.5504 66.4865C85.5632 66.0509 85.6676 65.6228 85.857 65.23C86.0972 64.7463 86.3707 64.2797 86.6754 63.8335C86.9326 64.3957 87.3094 65.4372 86.969 66.1342V66.1316ZM93.5112 60.6779C93.4283 60.6963 93.3415 60.6814 93.2695 60.6364C92.833 60.3514 92.8071 59.5172 93.2098 58.4601C93.7918 56.9211 95.096 55.3718 96.1821 55.3718H96.2184C96.0781 56.4211 94.7141 60.354 93.5112 60.6805V60.6779ZM102.498 53.1022C102.492 51.7086 102.557 50.3155 102.693 48.9284C103.239 43.4876 104.182 41.6196 104.922 41.0393C105.273 41.9305 105.153 43.0291 105.047 44.0032L105.021 44.2623C104.912 45.2831 104.278 49.146 104.075 50.159C103.874 51.2032 103.614 52.2351 103.296 53.2499C103.078 53.9271 102.818 54.5899 102.516 55.2345C102.511 54.4935 102.498 53.7862 102.498 53.1048V53.1022Z" fill="white"/>
<path d="M41.1923 60.2765C41.6545 59.8185 42.0785 59.3237 42.4602 58.7971C42.5303 58.7013 42.7512 58.424 42.9461 58.1753L43.2552 57.7815C43.9074 56.9472 44.4244 56.1959 44.6972 55.7917C44.7492 56.683 44.8947 58.9448 45.0635 60.007V60.0537C45.2376 61.1755 45.5468 62.6834 46.1937 62.8026C46.9446 62.9373 47.3135 62.1911 47.5578 61.6937L47.6123 61.5823C48.3736 60.0589 49.0205 58.8308 49.6545 57.7167C49.7766 57.4965 49.9013 57.2711 50.0234 57.0431C50.4646 56.1867 50.9783 55.3693 51.5589 54.5999C51.5589 54.7217 51.5589 54.8461 51.5589 54.9653C51.5589 55.0844 51.5381 55.2062 51.5277 55.328C51.5096 55.5534 51.4862 55.7866 51.481 56.0223C51.481 56.341 51.481 56.6648 51.481 56.9861C51.481 57.2167 51.481 57.4525 51.481 57.6856C51.4954 58.3435 51.5614 58.9993 51.6784 59.6469L51.6914 59.7143C51.7961 60.4944 52.1359 61.2244 52.6657 61.8077C52.8179 61.9889 53.015 62.1271 53.2375 62.2085C53.46 62.2899 53.7001 62.3116 53.9336 62.2714C54.097 62.2421 54.2511 62.175 54.3837 62.0756C54.5164 61.9762 54.6238 61.8471 54.6975 61.6989C54.7198 61.6633 54.7345 61.6236 54.7408 61.5822C54.747 61.5407 54.7447 61.4984 54.7339 61.4579C54.7251 61.425 54.7091 61.3945 54.6871 61.3686C54.6651 61.3426 54.6376 61.3218 54.6066 61.3076C54.4666 61.2321 54.3395 61.135 54.2298 61.0201C54.1349 60.9255 54.0324 60.8388 53.9232 60.761C53.8867 60.7379 53.8527 60.711 53.8219 60.6807C53.162 59.6443 53.3023 58.1054 53.4088 56.74C53.4452 56.328 53.4764 55.9368 53.4868 55.5819C53.4868 55.4731 53.4997 55.3383 53.5127 55.1907C53.5725 54.4911 53.6504 53.5377 53.1646 53.162C52.9273 53.0024 52.6411 52.9317 52.3566 52.9625C51.1276 53.1672 50.278 54.6647 49.7012 55.6544L49.6051 55.8202C49.2829 56.3799 48.9893 56.9706 48.7113 57.5406C48.5944 57.7737 48.4827 58.0017 48.3632 58.2349L48.332 58.2997C48.1501 58.6598 47.9709 59.0199 47.789 59.3775C47.6971 59.5417 47.5864 59.6947 47.459 59.8335C47.3265 59.9837 47.1992 60.0925 47.1395 60.0925C47.1395 60.0925 47.1395 60.0925 47.1239 60.0485C47.1239 60.0174 47.1239 59.9345 47.1109 59.8749L47.0823 59.4941C47.0407 58.9448 46.9992 58.3748 47.0018 57.8178C47.0018 57.1675 47.0018 56.5845 46.9576 56.0249C46.9264 55.6311 46.9186 55.2477 46.9134 54.9031V54.8383C46.9838 54.5429 46.9953 54.2365 46.9472 53.9367C46.9036 53.821 46.8254 53.7214 46.7231 53.6514C46.6209 53.5814 46.4996 53.5445 46.3756 53.5455C45.7365 53.4911 44.653 54.0015 44.2347 54.9264C43.2163 57.1882 41.1507 59.2246 40.9299 59.4837C40.8219 59.1699 40.6935 58.8635 40.5454 58.5665C40.3531 58.1675 40.1297 57.7893 39.9114 57.4084C39.6359 56.9528 39.3861 56.4823 39.1631 55.999L39.1346 55.9368C38.9605 55.543 38.8981 55.3979 39.0852 54.9653C39.2056 54.6843 39.4039 54.4434 39.6568 54.2709L39.7217 54.2191C40.0335 53.96 40.3453 53.7009 40.6545 53.4652L40.8078 53.3589L40.8338 53.3434C40.8727 53.3175 41.0104 53.2138 41.1481 53.105C41.2858 52.9962 41.4495 52.8796 41.4885 52.8459C41.5077 52.8358 41.5253 52.8227 41.5404 52.8071C41.6065 52.7666 41.6574 52.7057 41.6855 52.6337C41.7137 52.5617 41.7175 52.4825 41.6963 52.4081C41.6782 52.3439 41.6388 52.2876 41.5846 52.2486C41.5303 52.2095 41.4644 52.19 41.3976 52.1931C41.3585 52.187 41.3187 52.1886 41.2804 52.198C41.242 52.2073 41.2059 52.2241 41.1741 52.2475C40.0413 52.6257 38.9267 53.4574 38.1914 54.087C37.8381 54.3927 36.6793 55.4575 36.6923 56.3488C36.7115 56.6054 36.7826 56.8554 36.9014 57.0839C37.0202 57.3123 37.1841 57.5144 37.3834 57.6779C38.295 58.476 38.9563 59.5196 39.2879 60.6832C38.8254 60.9657 36.5156 62.4373 36.3493 63.3959C36.2688 63.8648 36.5546 64.2923 37.1158 64.5384C37.4487 64.6782 37.8069 64.7479 38.168 64.7431C38.7411 64.7304 39.3036 64.5867 39.8122 64.323C40.3207 64.0594 40.7618 63.6828 41.1014 63.2223C41.6106 62.5772 41.3508 61.0045 41.1923 60.2765ZM37.5549 63.8467C37.4933 63.8135 37.4391 63.7683 37.3954 63.7137C37.3518 63.6591 37.3197 63.5963 37.301 63.529C37.2823 63.4618 37.2775 63.3914 37.2867 63.3222C37.296 63.2531 37.3191 63.1864 37.3548 63.1264C37.6328 62.7067 38.9475 61.7351 39.4567 61.375C39.4291 61.7177 39.3813 62.0586 39.3138 62.3958C39.2656 62.7324 39.1537 63.0569 38.9839 63.3518C38.4564 64.085 37.8823 64.0773 37.5497 63.8544L37.5549 63.8467Z" fill="white"/>
</g>
<defs>
<clipPath id="clip0_1005_649">
<rect width="153" height="79" fill="white"/>
</clipPath>
</defs>
</svg>
