<?xml version="1.0" encoding="utf-8"?>
<!-- Generator: Adobe Illustrator 27.6.1, SVG Export Plug-In . SVG Version: 6.00 Build 0)  -->
<svg version="1.1" id="Layer_1" xmlns="http://www.w3.org/2000/svg" xmlns:xlink="http://www.w3.org/1999/xlink" x="0px" y="0px"
	 viewBox="0 0 542.2 74.5" style="enable-background:new 0 0 542.2 74.5;" xml:space="preserve">
<style type="text/css">
	.st0{fill:#06262D;}
</style>
<g>
	<g>
		<path class="st0" d="M46.7,33.2l24.7-18.9h0l0,0h-6c-1.5,0-2.9,0.5-4.1,1.4L28,40.7h-0.4V14.3H22v0h0v45.8h5.7v0h0V47.7l7.9-6
			c3.8-2.9,9.2-2.6,12.6,0.7l15.4,14.9c1.8,1.7,4.2,2.7,6.7,2.7h4l0,0h0.1L46.7,33.2z"/>
		<path class="st0" d="M110.7,14.3h-7.6L79,60h0l0,0h6.2l2.8-5.3c1.7-3.2,5-5.1,8.5-5.1h20.7c3.6,0,6.9,2,8.5,5.1l2.8,5.3h6.2l0,0h0
			L110.7,14.3z M106.7,19.2h0.4l13.8,26.2h-28L106.7,19.2z"/>
		<polygon class="st0" points="172.6,54 172.3,54 149.8,14.3 141.7,14.3 141.7,14.3 141.6,14.3 141.6,60.1 147.3,60.1 147.3,60 
			147.3,60 147.3,21.6 147.7,21.6 169.6,60.1 175.4,60.1 197.3,21.6 197.6,21.6 197.6,60.1 203.3,60.1 203.3,60 203.3,60 
			203.3,14.3 195.2,14.3 		"/>
		<polygon class="st0" points="219,39.4 255.9,39.4 255.9,39.3 256,39.3 256,35 219,35 219,19 261,19 261,18.9 261.1,18.9 
			261.1,14.3 213.4,14.3 213.4,14.3 213.3,14.3 213.3,60.1 262.6,60.1 262.6,60 262.6,60 262.6,55.4 219,55.4 		"/>
		<path class="st0" d="M363.2,14.3h-7.6L331.5,60h0l0,0h6.2l2.8-5.3c1.7-3.2,5-5.1,8.5-5.1h20.7c3.6,0,6.9,2,8.5,5.2l2.8,5.2h6.2
			l0,0h0L363.2,14.3z M359.2,19.2h0.3l13.8,26.2h-28L359.2,19.2z"/>
		<path class="st0" d="M418.6,56.1c-7.5,0-13.6-1.6-18.2-4.9c-4.6-3.3-6.9-8-6.9-14.1c0-0.8,0-1.5,0.1-2.2c0.5-5,2.8-9,6.8-11.8
			c4.6-3.3,10.6-4.9,18.1-4.9c4.3,0,8.3,0.6,12.1,1.8c3.8,1.2,6.7,2.8,8.9,4.8v0c0,0,0,0,0,0V19c-5.8-3.5-12.9-5.3-21.2-5.3
			c-9.5,0-17,2.1-22.4,6.3c-4.7,3.7-7.4,8.5-8,14.6c-0.1,0.9-0.1,1.8-0.1,2.7c0,7.2,2.7,13,8,17.2c5.4,4.2,12.8,6.3,22.4,6.3
			c4.2,0,8.3-0.5,12.2-1.6c3.9-1.1,7.1-2.4,9.8-4.1v0c0,0,0,0,0,0V55v-5.9c-2.2,2.2-5.2,3.9-9.1,5.2
			C427.3,55.5,423.1,56.1,418.6,56.1z"/>
		<path class="st0" d="M494.6,14.3L494.6,14.3l0,10.8c0,5.3-4.3,9.6-9.6,9.6h-29.1V14.3h-5.7v0h0v45.8h5.7v0h0V49.2
			c0-5.3,4.3-9.6,9.7-9.6h29v20.5h5.7v0h0V14.3L494.6,14.3L494.6,14.3z"/>
		<polygon class="st0" points="515.6,14.3 515.6,14.3 515.6,60.1 521.3,60.1 521.3,60 521.3,14.3 521.3,14.3 515.6,14.3 		"/>
		<path class="st0" d="M316.2,14.3L316.2,14.3l0,10.8c0,0.7-0.1,1.3-0.2,1.9c-0.9,4.4-4.8,7.7-9.4,7.7h-29.1V14.3h-5.7v0h0v45.8h5.7
			v0h0V49.2c0-0.7,0.1-1.3,0.2-1.9c0.9-4.4,4.8-7.7,9.5-7.7h29v20.5h5.7v0h0V14.3L316.2,14.3L316.2,14.3z"/>
	</g>
</g>
</svg>
