<svg width="391" height="64" viewBox="0 0 391 64" fill="none" xmlns="http://www.w3.org/2000/svg">
<g clip-path="url(#clip0_10_7)">
<path d="M46.6675 24.8418C46.6675 25.6855 46.355 26.4668 45.73 27.1855C45.4175 27.4668 45.0581 27.7012 44.6519 27.8887C44.2769 28.0449 43.8706 28.123 43.4331 28.123C43.0581 28.123 42.6831 28.0605 42.3081 27.9355C41.9644 27.8105 41.3862 27.3574 40.5737 26.5762C39.605 25.5762 38.7769 24.9043 38.0894 24.5605C37.4331 24.2168 36.7769 24.0449 36.1206 24.0449C34.6206 24.0449 32.7456 24.6699 30.4956 25.9199C28.2769 27.1699 24.2925 30.3887 18.5425 35.5762V55.4043H34.8081C35.9331 55.4043 36.8706 55.6699 37.6206 56.2012C38.2144 56.7012 38.5581 57.4668 38.6519 58.498C38.6519 59.4043 38.3237 60.1699 37.6675 60.7949C37.355 61.1074 36.98 61.3262 36.5425 61.4512C36.1362 61.6074 35.5581 61.6855 34.8081 61.6855H3.91748C2.66748 61.6855 1.71436 61.4043 1.05811 60.8418C0.526855 60.2793 0.214355 59.5449 0.120605 58.6387C0.120605 57.7637 0.41748 57.0293 1.01123 56.4355C1.35498 56.123 1.72998 55.9043 2.13623 55.7793C2.54248 55.623 3.13623 55.5449 3.91748 55.5449H12.2612V25.0762H6.16748C5.51123 25.0762 4.94873 24.998 4.47998 24.8418C4.04248 24.6855 3.65186 24.4668 3.30811 24.1855C2.77686 23.6543 2.46436 22.9043 2.37061 21.9355C2.37061 21.0605 2.66748 20.2949 3.26123 19.6387C3.60498 19.3262 3.97998 19.1074 4.38623 18.9824C4.79248 18.8262 5.38623 18.748 6.16748 18.748H18.5425V27.2324C22.7925 23.5137 26.0425 21.0762 28.2925 19.9199C31.0737 18.4824 33.605 17.7637 35.8862 17.7637C38.4487 17.7637 40.8706 18.6387 43.1519 20.3887C44.3394 21.2949 45.2144 22.123 45.7769 22.873C46.3706 23.623 46.6675 24.2793 46.6675 24.8418ZM102.917 40.3105C102.917 46.623 100.652 52.0293 96.1206 56.5293C91.5894 60.998 86.1362 63.2324 79.7612 63.2324C73.2925 63.2324 67.8081 60.998 63.3081 56.5293C58.8081 52.0293 56.5581 46.623 56.5581 40.3105C56.5581 33.9668 58.8237 28.5605 63.355 24.0918C67.8862 19.5918 73.355 17.3418 79.7612 17.3418C86.1362 17.3418 91.5894 19.5762 96.1206 24.0449C100.652 28.5137 102.917 33.9355 102.917 40.3105ZM96.5894 40.3105C96.5894 35.748 94.9487 31.8418 91.6675 28.5918C88.4175 25.3105 84.4331 23.6699 79.7144 23.6699C75.0894 23.6699 71.1206 25.3105 67.8081 28.5918C64.4956 31.8418 62.8394 35.748 62.8394 40.3105C62.8394 44.8418 64.4956 48.748 67.8081 52.0293C71.1206 55.3105 75.0894 56.9512 79.7144 56.9512C84.2456 56.9512 88.1831 55.3418 91.5269 52.123C94.9019 48.873 96.5894 44.9355 96.5894 40.3105ZM161.792 58.498C161.792 59.4043 161.464 60.1699 160.808 60.7949C160.496 61.1074 160.121 61.3262 159.683 61.4512C159.277 61.6074 158.699 61.6855 157.949 61.6855H147.542V57.2324C142.136 61.2324 136.417 63.2324 130.386 63.2324C127.886 63.2324 125.652 62.9043 123.683 62.248C121.746 61.5918 120.027 60.623 118.527 59.3418C115.621 56.7168 114.167 53.498 114.167 49.6855C114.167 45.5293 116.058 41.9043 119.839 38.8105C121.683 37.3418 123.933 36.2168 126.589 35.4355C129.277 34.6543 132.386 34.2637 135.917 34.2637C137.261 34.2637 138.23 34.2793 138.824 34.3105C139.449 34.3418 140.48 34.4512 141.917 34.6387C142.699 34.6387 143.511 34.7168 144.355 34.873C145.23 34.998 146.292 35.1855 147.542 35.4355V30.5137C147.542 28.6699 146.683 27.0762 144.964 25.7324C143.246 24.3574 140.496 23.6699 136.714 23.6699C133.777 23.6699 129.589 24.5449 124.152 26.2949C123.621 26.4512 123.214 26.5605 122.933 26.623C122.652 26.6855 122.339 26.748 121.996 26.8105C121.277 26.8105 120.527 26.498 119.746 25.873C119.277 25.373 118.996 24.6543 118.902 23.7168C118.902 22.8105 119.152 22.0918 119.652 21.5605C120.152 20.998 122.121 20.2637 125.558 19.3574C130.464 18.0137 134.246 17.3418 136.902 17.3418C142.089 17.3418 146.214 18.6855 149.277 21.373C152.339 24.0605 153.871 27.1074 153.871 30.5137V55.4043H157.949C159.074 55.4043 160.011 55.6699 160.761 56.2012C161.355 56.7012 161.699 57.4668 161.792 58.498ZM147.542 49.123V41.8105C146.136 41.4668 144.527 41.1699 142.714 40.9199C141.683 40.7949 140.667 40.7012 139.667 40.6387C138.699 40.5762 137.574 40.5449 136.292 40.5449C130.855 40.5449 126.636 41.7012 123.636 44.0137C121.511 45.6074 120.449 47.498 120.449 49.6855C120.449 51.748 121.246 53.4824 122.839 54.8887C124.464 56.2637 126.917 56.9512 130.199 56.9512C133.417 56.9512 136.402 56.3105 139.152 55.0293C141.902 53.748 144.699 51.7793 147.542 49.123ZM219.496 58.498C219.496 59.4043 219.167 60.1699 218.511 60.7949C218.199 61.0762 217.824 61.2949 217.386 61.4512C216.98 61.6074 216.417 61.6855 215.699 61.6855H205.152C204.558 61.6855 204.027 61.6074 203.558 61.4512C203.089 61.3262 202.667 61.123 202.292 60.8418C201.73 60.248 201.402 59.498 201.308 58.5918C201.308 57.623 201.621 56.8418 202.246 56.248C202.558 55.9668 202.933 55.7637 203.371 55.6387C203.839 55.4824 204.433 55.4043 205.152 55.4043H207.261V32.4355C207.261 29.9668 206.355 27.8887 204.542 26.2012C202.761 24.5137 200.324 23.6699 197.23 23.6699C194.855 23.6699 192.808 24.1387 191.089 25.0762C189.371 26.0137 186.839 28.4199 183.496 32.2949V55.4043H186.777C187.964 55.4043 188.871 55.6699 189.496 56.2012C190.121 56.7324 190.48 57.498 190.574 58.498C190.574 59.4043 190.246 60.1699 189.589 60.7949C189.277 61.0762 188.902 61.2949 188.464 61.4512C188.058 61.6074 187.496 61.6855 186.777 61.6855H173.933C173.277 61.6855 172.714 61.6074 172.246 61.4512C171.808 61.2949 171.417 61.0762 171.074 60.7949C170.542 60.2324 170.23 59.498 170.136 58.5918C170.136 57.623 170.449 56.8574 171.074 56.2949C171.699 55.7012 172.652 55.4043 173.933 55.4043H177.214V25.0762H175.058C174.402 25.0762 173.839 24.998 173.371 24.8418C172.933 24.6855 172.542 24.4668 172.199 24.1855C171.667 23.6543 171.355 22.9043 171.261 21.9355C171.261 20.9668 171.574 20.2012 172.199 19.6387C172.824 19.0449 173.777 18.748 175.058 18.748H183.496V23.1074C185.558 21.2324 187.48 19.873 189.261 19.0293C191.699 17.9043 194.371 17.3418 197.277 17.3418C200.496 17.3418 203.417 18.0293 206.042 19.4043C207.917 20.4355 209.636 22.1387 211.199 24.5137C212.761 26.8887 213.542 29.2949 213.542 31.7324V55.4043H215.699C216.886 55.4043 217.792 55.6699 218.417 56.2012C219.042 56.7324 219.402 57.498 219.496 58.498ZM275.886 40.3105C275.886 46.623 273.621 52.0293 269.089 56.5293C264.558 60.998 259.105 63.2324 252.73 63.2324C246.261 63.2324 240.777 60.998 236.277 56.5293C231.777 52.0293 229.527 46.623 229.527 40.3105C229.527 33.9668 231.792 28.5605 236.324 24.0918C240.855 19.5918 246.324 17.3418 252.73 17.3418C259.105 17.3418 264.558 19.5762 269.089 24.0449C273.621 28.5137 275.886 33.9355 275.886 40.3105ZM269.558 40.3105C269.558 35.748 267.917 31.8418 264.636 28.5918C261.386 25.3105 257.402 23.6699 252.683 23.6699C248.058 23.6699 244.089 25.3105 240.777 28.5918C237.464 31.8418 235.808 35.748 235.808 40.3105C235.808 44.8418 237.464 48.748 240.777 52.0293C244.089 55.3105 248.058 56.9512 252.683 56.9512C257.214 56.9512 261.152 55.3418 264.496 52.123C267.871 48.873 269.558 44.9355 269.558 40.3105ZM337.621 58.498C337.621 59.4043 337.292 60.1699 336.636 60.7949C336.324 61.1074 335.949 61.3262 335.511 61.4512C335.105 61.6074 334.527 61.6855 333.777 61.6855H321.027C320.371 61.6855 319.808 61.6074 319.339 61.4512C318.902 61.2949 318.511 61.0762 318.167 60.7949C317.636 60.2324 317.324 59.498 317.23 58.5918C317.23 57.623 317.542 56.8574 318.167 56.2949C318.792 55.7012 319.746 55.4043 321.027 55.4043L306.777 40.7793L303.542 43.498V61.6855H293.136C292.48 61.6855 291.917 61.6074 291.449 61.4512C291.011 61.2949 290.621 61.0762 290.277 60.7949C289.746 60.2324 289.433 59.498 289.339 58.5918C289.339 57.623 289.652 56.8574 290.277 56.2949C290.902 55.7012 291.855 55.4043 293.136 55.4043H297.261V6.8418H293.136C292.48 6.8418 291.917 6.76367 291.449 6.60742C291.011 6.45117 290.621 6.23242 290.277 5.95117C289.746 5.41992 289.433 4.66992 289.339 3.70117C289.339 2.73242 289.652 1.9668 290.277 1.4043C290.902 0.810547 291.855 0.513672 293.136 0.513672H303.542V35.4824L315.917 25.0762C314.636 25.0762 313.683 24.7949 313.058 24.2324C312.433 23.6387 312.121 22.8574 312.121 21.8887C312.214 20.9824 312.527 20.248 313.058 19.6855C313.746 19.0918 314.699 18.7949 315.917 18.7949H328.667C329.511 18.7949 330.214 18.9199 330.777 19.1699C331.027 19.2949 331.277 19.4668 331.527 19.6855C332.183 20.3105 332.511 21.0762 332.511 21.9824C332.417 23.0137 332.074 23.7793 331.48 24.2793C331.136 24.5293 330.73 24.7324 330.261 24.8887C329.792 25.0137 329.261 25.0762 328.667 25.0762H325.574L311.511 36.7949L329.746 55.4043H333.777C334.902 55.4043 335.839 55.6699 336.589 56.2012C337.183 56.7012 337.527 57.4668 337.621 58.498ZM390.589 54.0918C390.589 54.9043 390.23 55.6855 389.511 56.4355C387.886 58.0918 385.058 59.6543 381.027 61.123C379.089 61.8105 377.089 62.3262 375.027 62.6699C372.996 63.0449 370.949 63.2324 368.886 63.2324C361.855 63.2324 355.949 60.9199 351.167 56.2949C346.417 51.6387 344.042 45.998 344.042 39.373C344.042 33.3418 346.277 28.1699 350.746 23.8574C355.214 19.5137 360.73 17.3418 367.292 17.3418C374.011 17.3418 379.589 19.5605 384.027 23.998C386.183 26.2168 387.792 28.8262 388.855 31.8262C389.949 34.7949 390.496 38.2949 390.496 42.3262H350.558C350.964 44.4199 351.636 46.3105 352.574 47.998C353.511 49.6855 354.761 51.2168 356.324 52.5918C359.699 55.498 363.886 56.9512 368.886 56.9512C371.636 56.9512 374.605 56.4824 377.792 55.5449C379.386 55.0762 380.777 54.5605 381.964 53.998C383.183 53.4043 384.277 52.7012 385.246 51.8887C385.996 51.2637 386.761 50.9512 387.542 50.9512C388.324 50.9512 389.027 51.2637 389.652 51.8887C390.277 52.4824 390.589 53.2168 390.589 54.0918ZM383.886 35.998C383.011 32.623 381.183 29.7793 378.402 27.4668C375.308 24.9355 371.605 23.6699 367.292 23.6699C362.949 23.6699 359.246 24.9199 356.183 27.4199C353.433 29.7012 351.621 32.5605 350.746 35.998H383.886Z" fill="#B3602C"/>
</g>
<defs>
<clipPath id="clip0_10_7">
<rect width="391" height="64" fill="white"/>
</clipPath>
</defs>
</svg>
